<svg width="67" height="67" viewBox="0 0 67 67" fill="none" xmlns="http://www.w3.org/2000/svg">
<g clip-path="url(#clip0_300_4324)">
<mask id="mask0_300_4324" style="mask-type:luminance" maskUnits="userSpaceOnUse" x="0" y="0" width="67" height="67">
<path d="M0.0449219 0.207397H66.9511V66.8836H0.0449219V0.207397Z" fill="white"/>
</mask>
<g mask="url(#mask0_300_4324)">
<mask id="mask1_300_4324" style="mask-type:luminance" maskUnits="userSpaceOnUse" x="0" y="0" width="67" height="67">
<path d="M33.498 0.207397C15.0225 0.207397 0.0449219 15.1335 0.0449219 33.5455C0.0449219 51.9576 15.0225 66.8836 33.498 66.8836C51.9735 66.8836 66.9511 51.9576 66.9511 33.5455C66.9511 15.1335 51.9735 0.207397 33.498 0.207397Z" fill="white"/>
</mask>
<g mask="url(#mask1_300_4324)">
<path d="M33.498 0.207397C15.0225 0.207397 0.0449219 15.1335 0.0449219 33.5455C0.0449219 51.9576 15.0225 66.8836 33.498 66.8836C51.9735 66.8836 66.9511 51.9576 66.9511 33.5455C66.9511 15.1335 51.9735 0.207397 33.498 0.207397Z" stroke="url(#paint0_linear_300_4324)" stroke-width="6"/>
</g>
</g>
<path d="M15.0176 35.1836H51.9831" stroke="url(#paint1_radial_300_4324)" stroke-width="2"/>
<mask id="mask2_300_4324" style="mask-type:luminance" maskUnits="userSpaceOnUse" x="24" y="12" width="19" height="21">
<path d="M24.1113 12.1356H42.8251V32.8573H24.1113V12.1356Z" fill="white"/>
</mask>
<g mask="url(#mask2_300_4324)">
<mask id="mask3_300_4324" style="mask-type:luminance" maskUnits="userSpaceOnUse" x="24" y="12" width="19" height="21">
<path fill-rule="evenodd" clip-rule="evenodd" d="M36.0584 17.9722C41.472 11.6945 46.7546 20.9809 38.6671 22.4846C46.7546 24.0544 41.4071 33.2748 36.0584 26.9971C38.7971 34.8445 28.1659 34.7785 30.9058 26.9971C25.4922 33.2748 20.2085 24.0544 28.2971 22.4846C20.1435 20.9809 25.4922 11.7605 30.9058 17.9722C28.1009 10.1908 38.7971 10.1908 36.0584 17.9722ZM33.4496 21.3071C34.1018 21.3071 34.689 21.8311 34.689 22.4846C34.689 23.1382 34.1018 23.727 33.4496 23.727C32.7974 23.727 32.2752 23.1382 32.2752 22.4846C32.2752 21.8311 32.7974 21.3071 33.4496 21.3071Z" fill="white"/>
</mask>
<g mask="url(#mask3_300_4324)">
<path d="M24.1113 12.1356V32.8573H42.8251V12.1356H24.1113Z" fill="url(#paint2_linear_300_4324)"/>
</g>
</g>
<path d="M9.31445 30.6711H10.8258V25.4895H12.1169C13.3467 25.4895 14.254 25.7905 14.5452 26.4452V24.379C14.254 25.0326 13.3467 25.3336 12.1169 25.3336H10.8258V20.4434H11.6272C14.0242 20.4434 15.254 21.2528 15.9723 21.9903V20.2875H9.31445V30.6711Z" fill="white"/>
<path d="M16.9082 30.6711H23.1606V28.9683C22.4518 29.695 20.2426 30.5044 18.4196 30.5152V20.2875H16.9082V30.6711Z" fill="white"/>
<path d="M44.6172 20.2875C45.7014 23.8286 46.3259 25.926 47.3896 29.3832C47.6074 30.1003 48.0249 30.7754 48.7854 30.7754C49.5459 30.7754 49.9623 30.1003 50.1813 29.3832C50.6506 27.8566 51.0356 26.6011 51.411 25.3648C51.7961 26.6011 52.1715 27.8674 52.6408 29.3832C52.8598 30.1003 53.2762 30.7754 54.0367 30.7754C54.7971 30.7754 55.2147 30.1003 55.4325 29.3832C56.4854 25.926 57.1316 23.8286 58.2049 20.2875H56.6105C55.5372 23.8286 54.9331 25.9356 53.8393 29.3832C53.7455 29.6746 53.6095 29.7681 53.3809 29.7681C52.4736 29.7681 52.0981 26.1442 52.0259 23.3502C52.3075 22.416 52.6095 21.4291 52.9537 20.2875H51.3593C50.286 23.8286 49.6819 25.9356 48.5869 29.3832C48.493 29.6746 48.3583 29.7681 48.1284 29.7681C46.7531 29.7681 46.5966 21.5022 46.889 20.2875H44.6172Z" fill="white"/>
<path d="M23.2891 51.3715H24.449V51.6017H23.5538V52.1965H24.2998V52.4123H23.5538V53.3189H23.2891V51.3715Z" fill="white"/>
<path d="M26.5819 53.3189H25.4219V51.3715H25.6866V53.0839H26.5819V53.3189Z" fill="white"/>
<path d="M27.4883 51.3715H28.6627V51.6017H27.753V52.1917H28.5376V52.4123H27.753V53.0887H28.6627V53.3189H27.4883V51.3715Z" fill="white"/>
<path d="M30.8324 51.3715H31.0875V52.5658C31.0875 52.6905 31.0694 52.8033 31.0345 52.9016C31.002 52.9975 30.9539 53.0791 30.8901 53.1462C30.8251 53.2134 30.7481 53.2649 30.6591 53.2997C30.5688 53.3345 30.469 53.3525 30.3607 53.3525C30.132 53.3525 29.9539 53.2877 29.8264 53.1558C29.7012 53.0215 29.6387 52.8297 29.6387 52.5802V51.3715H29.9034V52.5371C29.9034 52.7265 29.9395 52.8716 30.0141 52.9736C30.0911 53.0731 30.2066 53.1222 30.3607 53.1222C30.5171 53.1222 30.635 53.0731 30.712 52.9736C30.7914 52.8752 30.8324 52.7289 30.8324 52.5371V51.3715Z" fill="white"/>
<path d="M33.3282 53.3525L33.0828 52.8249C33.0214 52.6942 32.9444 52.6019 32.8517 52.5467C32.7579 52.4891 32.6399 52.4604 32.4955 52.4604H32.4522V53.319H32.1875V51.3763C32.2898 51.3667 32.3848 51.3607 32.4715 51.3571C32.5605 51.3511 32.6568 51.3475 32.7603 51.3475C32.8782 51.3475 32.9829 51.3607 33.0731 51.3859C33.1622 51.4123 33.2368 51.4483 33.2945 51.4962C33.3547 51.5418 33.4004 51.5958 33.4293 51.6593C33.4606 51.7205 33.4774 51.7888 33.4774 51.8656C33.4774 52.0035 33.4365 52.1138 33.3571 52.1965C33.2765 52.2769 33.1598 52.338 33.0057 52.3788C33.0443 52.3956 33.0779 52.4148 33.1068 52.4364C33.1381 52.4592 33.1694 52.4867 33.1983 52.5179C33.2272 52.5467 33.2536 52.5827 33.2801 52.6235C33.309 52.6654 33.3355 52.717 33.3619 52.7769L33.5737 53.2374L33.3282 53.3525ZM32.7603 51.573C32.6953 51.573 32.6375 51.5754 32.587 51.5778C32.5389 51.5778 32.4931 51.5802 32.4522 51.5826V52.2349H32.7603C32.895 52.2349 33.0033 52.2061 33.0876 52.1486C33.1706 52.0886 33.2127 52.0023 33.2127 51.8896C33.2127 51.7972 33.1718 51.7217 33.0924 51.6641C33.0154 51.6042 32.9047 51.573 32.7603 51.573Z" fill="white"/>
<path d="M34.5488 53.3189V51.3715H34.8136V53.3189H34.5488Z" fill="white"/>
<path d="M35.9219 52.9304C35.9893 52.9879 36.0639 53.0347 36.1481 53.0695C36.2311 53.1055 36.3286 53.1223 36.4417 53.1223C36.5765 53.1223 36.6824 53.0959 36.7594 53.0407C36.8388 52.9832 36.8797 52.9064 36.8797 52.8105C36.8797 52.7721 36.8725 52.7373 36.8605 52.7049C36.8508 52.6702 36.828 52.6378 36.7931 52.609C36.7606 52.5778 36.7161 52.5467 36.6583 52.5179C36.6005 52.4867 36.5247 52.4531 36.4321 52.4171C36.3286 52.3788 36.242 52.3404 36.1722 52.302C36.1048 52.2636 36.0482 52.2229 36.0037 52.1773C35.9616 52.1329 35.9315 52.0838 35.9123 52.0286C35.8954 51.9711 35.8882 51.9075 35.8882 51.8367C35.8882 51.7696 35.9026 51.706 35.9315 51.6449C35.9604 51.5849 36.0013 51.5322 36.0566 51.4866C36.1144 51.4386 36.1842 51.4026 36.2684 51.3763C36.3515 51.3511 36.4465 51.3379 36.5524 51.3379C36.6679 51.3379 36.7702 51.3511 36.8605 51.3763C36.9531 51.399 37.0434 51.4314 37.13 51.4722L37.0337 51.6976C36.9688 51.6593 36.8954 51.6293 36.8123 51.6065C36.7281 51.5813 36.6403 51.5681 36.5476 51.5681C36.4225 51.5681 36.3238 51.5921 36.254 51.6401C36.183 51.6856 36.1481 51.748 36.1481 51.8272C36.1481 51.8631 36.1529 51.8943 36.1625 51.9231C36.1746 51.9519 36.1962 51.9806 36.2251 52.0094C36.2564 52.0358 36.2997 52.0622 36.3551 52.091C36.4092 52.1174 36.4814 52.1473 36.5717 52.1821C36.68 52.2241 36.7714 52.266 36.846 52.3068C36.9194 52.3488 36.9784 52.3932 37.0241 52.4411C37.0686 52.4891 37.1011 52.5419 37.1204 52.5994C37.1396 52.6546 37.1493 52.7145 37.1493 52.7817C37.1493 52.8716 37.1312 52.9532 37.0963 53.0263C37.0602 53.0971 37.0121 53.1558 36.9519 53.2038C36.8905 53.2518 36.8147 53.2889 36.7257 53.3141C36.639 53.3393 36.544 53.3525 36.4417 53.3525C36.3069 53.3525 36.183 53.3345 36.0711 53.2997C35.958 53.2614 35.8641 53.2134 35.7871 53.1558L35.9219 52.9304Z" fill="white"/>
<path d="M37.9609 51.3715H39.4242V51.6065H38.8273V53.3189H38.5626V51.6065H37.9609V51.3715Z" fill="white"/>
<path d="M40.3418 51.3715H41.5162V51.6017H40.6065V52.1917H41.3911V52.4123H40.6065V53.0887H41.5162V53.3189H40.3418V51.3715Z" fill="white"/>
<path d="M17.4922 44.4707C17.4922 47.1185 19.8061 48.0635 22.3174 48.0635C23.025 48.0635 23.5568 47.9591 24.1092 47.7001L24.7349 45.893C24.0261 46.4841 23.1501 46.5573 22.2753 46.5573C19.9409 46.5573 17.6799 46.08 17.6799 44.5535C17.6799 44.0139 18.0866 43.6913 19.024 43.6913C20.3897 43.6913 21.4414 44.6878 22.9841 44.6362C23.7133 44.6158 24.3691 44.1278 24.3691 43.3483C24.3691 41.2822 18.9205 41.9993 18.9205 40.0254C18.9205 39.2987 19.5667 38.9354 21.0877 38.9354C22.4209 38.9354 23.8071 39.2891 24.4112 39.7244L24.8384 38.1667C24.1922 37.6475 22.4005 37.4712 21.3271 37.4712C18.3261 37.4712 17.7425 38.8838 17.7425 39.517C17.7425 41.0543 19.243 41.3337 20.7122 41.6875C21.8277 41.9573 23.6086 42.2787 23.6086 42.8914C23.6086 43.1301 23.3896 43.2236 23.1501 43.2236C22.1815 43.2236 21.3897 42.4969 20.0035 42.4969C18.5872 42.4969 17.4922 43.1517 17.4922 44.4707Z" fill="white"/>
<path d="M25.7949 45.6746C25.7949 46.941 26.6709 48.0634 28.3267 48.0634C31.6406 48.0634 33.1519 44.1901 33.1519 41.6874V37.5754H31.6406L31.6514 45.6638C31.6514 46.7131 30.2231 46.7131 28.8381 46.7131C26.9513 46.7131 25.9826 46.3701 25.9826 45.1134C25.9826 43.8891 26.7227 40.0565 27.9621 37.5754H25.7949V45.6746Z" fill="white"/>
<path d="M36.0153 47.959V37.7313H38.245C39.4748 37.7313 39.9645 38.4784 39.9645 39.4545C39.9645 42.1755 36.8167 42.3002 36.8167 43.3075C36.8167 43.9718 38.1511 46.0272 39.0259 47.17C39.5686 47.8763 39.5987 47.959 40.2136 47.959H41.9331V47.8967C41.1835 47.8967 38.026 43.3171 38.026 42.6012C38.026 41.968 41.4746 41.8637 41.4746 39.361C41.4746 38.5096 40.9223 37.5754 39.7864 37.5754H34.5039V47.959H36.0153Z" fill="white"/>
<path d="M42.3496 44.4707C42.3496 47.1185 44.6636 48.0635 47.1749 48.0635C47.8824 48.0635 48.4143 47.9591 48.9666 47.7001L49.5923 45.893C48.8836 46.4841 48.0075 46.5573 47.1327 46.5573C44.7983 46.5573 42.5373 46.08 42.5373 44.5535C42.5373 44.0139 42.944 43.6913 43.8814 43.6913C45.2472 43.6913 46.2989 44.6878 47.8415 44.6362C48.5707 44.6158 49.2265 44.1278 49.2265 43.3483C49.2265 41.2822 43.7779 41.9993 43.7779 40.0254C43.7779 39.2987 44.4241 38.9354 45.9451 38.9354C47.2783 38.9354 48.6646 39.2891 49.2686 39.7244L49.6958 38.1667C49.0496 37.6475 47.2579 37.4712 46.1845 37.4712C43.1835 37.4712 42.5999 38.8838 42.5999 39.517C42.5999 41.0543 44.1004 41.3337 45.5697 41.6875C46.6851 41.9573 48.466 42.2787 48.466 42.8914C48.466 43.1301 48.247 43.2236 48.0075 43.2236C47.0389 43.2236 46.2471 42.4969 44.8609 42.4969C43.4446 42.4969 42.3496 43.1517 42.3496 44.4707Z" fill="white"/>
</g>
<defs>
<linearGradient id="paint0_linear_300_4324" x1="33.498" y1="0.207397" x2="33.498" y2="66.8836" gradientUnits="userSpaceOnUse">
<stop stop-color="#BBF6EC"/>
<stop offset="0.43" stop-color="#DFF6D6"/>
<stop offset="1" stop-color="#FFFBBE"/>
</linearGradient>
<radialGradient id="paint1_radial_300_4324" cx="0" cy="0" r="1" gradientUnits="userSpaceOnUse" gradientTransform="translate(33.5003 35.6836) rotate(0.940353) scale(20.6481 1257.42)">
<stop offset="0.43" stop-color="#DFF6D6"/>
<stop offset="0.4301" stop-color="#BBF6EC"/>
<stop offset="1" stop-color="#FFFBBE"/>
</radialGradient>
<linearGradient id="paint2_linear_300_4324" x1="43.464" y1="12.7497" x2="24.1319" y2="32.8774" gradientUnits="userSpaceOnUse">
<stop stop-color="#BBF6EC"/>
<stop offset="0.03125" stop-color="#BBF6EC"/>
<stop offset="0.0390625" stop-color="#BBF6EC"/>
<stop offset="0.046875" stop-color="#BCF6EB"/>
<stop offset="0.0546875" stop-color="#BCF6EB"/>
<stop offset="0.0625" stop-color="#BDF6EB"/>
<stop offset="0.0703125" stop-color="#BEF6EA"/>
<stop offset="0.078125" stop-color="#BEF6EA"/>
<stop offset="0.0859375" stop-color="#BFF6E9"/>
<stop offset="0.09375" stop-color="#C0F6E9"/>
<stop offset="0.101562" stop-color="#C1F6E8"/>
<stop offset="0.109375" stop-color="#C1F6E8"/>
<stop offset="0.117188" stop-color="#C2F6E8"/>
<stop offset="0.125" stop-color="#C3F6E7"/>
<stop offset="0.132812" stop-color="#C3F6E7"/>
<stop offset="0.140625" stop-color="#C4F6E6"/>
<stop offset="0.148438" stop-color="#C5F6E6"/>
<stop offset="0.15625" stop-color="#C5F6E6"/>
<stop offset="0.164063" stop-color="#C6F6E5"/>
<stop offset="0.171875" stop-color="#C7F6E5"/>
<stop offset="0.179688" stop-color="#C7F6E4"/>
<stop offset="0.1875" stop-color="#C8F6E4"/>
<stop offset="0.195313" stop-color="#C9F6E4"/>
<stop offset="0.203125" stop-color="#C9F6E3"/>
<stop offset="0.210938" stop-color="#CAF6E3"/>
<stop offset="0.21875" stop-color="#CBF6E2"/>
<stop offset="0.226563" stop-color="#CBF6E2"/>
<stop offset="0.234375" stop-color="#CCF6E1"/>
<stop offset="0.242188" stop-color="#CDF6E1"/>
<stop offset="0.25" stop-color="#CDF6E1"/>
<stop offset="0.257812" stop-color="#CEF6E0"/>
<stop offset="0.265625" stop-color="#CFF6E0"/>
<stop offset="0.273438" stop-color="#D0F6DF"/>
<stop offset="0.28125" stop-color="#D0F6DF"/>
<stop offset="0.289063" stop-color="#D1F6DF"/>
<stop offset="0.296875" stop-color="#D2F6DE"/>
<stop offset="0.304688" stop-color="#D2F6DE"/>
<stop offset="0.3125" stop-color="#D3F6DD"/>
<stop offset="0.320313" stop-color="#D4F6DD"/>
<stop offset="0.328125" stop-color="#D4F6DD"/>
<stop offset="0.335938" stop-color="#D5F6DC"/>
<stop offset="0.34375" stop-color="#D6F6DC"/>
<stop offset="0.351563" stop-color="#D6F6DB"/>
<stop offset="0.359375" stop-color="#D7F6DB"/>
<stop offset="0.367188" stop-color="#D8F6DA"/>
<stop offset="0.375" stop-color="#D8F6DA"/>
<stop offset="0.382813" stop-color="#D9F6DA"/>
<stop offset="0.390625" stop-color="#DAF6D9"/>
<stop offset="0.398438" stop-color="#DAF6D9"/>
<stop offset="0.40625" stop-color="#DBF6D8"/>
<stop offset="0.414063" stop-color="#DCF6D8"/>
<stop offset="0.421875" stop-color="#DCF6D8"/>
<stop offset="0.429688" stop-color="#DDF6D7"/>
<stop offset="0.4375" stop-color="#DEF6D7"/>
<stop offset="0.445312" stop-color="#DEF6D6"/>
<stop offset="0.453125" stop-color="#DFF6D6"/>
<stop offset="0.464498" stop-color="#E0F6D5"/>
<stop offset="0.46875" stop-color="#E0F6D5"/>
<stop offset="0.484375" stop-color="#E1F6D5"/>
<stop offset="0.5" stop-color="#E2F6D4"/>
<stop offset="0.515625" stop-color="#E3F7D3"/>
<stop offset="0.53125" stop-color="#E3F7D3"/>
<stop offset="0.535502" stop-color="#E4F7D2"/>
<stop offset="0.546875" stop-color="#E5F7D2"/>
<stop offset="0.5625" stop-color="#E5F7D1"/>
<stop offset="0.578125" stop-color="#E6F7D1"/>
<stop offset="0.59375" stop-color="#E7F7D0"/>
<stop offset="0.609375" stop-color="#E8F7CF"/>
<stop offset="0.625" stop-color="#E9F8CF"/>
<stop offset="0.640625" stop-color="#EAF8CE"/>
<stop offset="0.65625" stop-color="#EBF8CD"/>
<stop offset="0.671875" stop-color="#ECF8CD"/>
<stop offset="0.6875" stop-color="#ECF8CC"/>
<stop offset="0.703125" stop-color="#EDF8CB"/>
<stop offset="0.71875" stop-color="#EEF8CB"/>
<stop offset="0.734375" stop-color="#EFF9CA"/>
<stop offset="0.75" stop-color="#F0F9C9"/>
<stop offset="0.765625" stop-color="#F1F9C9"/>
<stop offset="0.78125" stop-color="#F2F9C8"/>
<stop offset="0.796875" stop-color="#F3F9C7"/>
<stop offset="0.8125" stop-color="#F4F9C6"/>
<stop offset="0.828125" stop-color="#F5F9C6"/>
<stop offset="0.84375" stop-color="#F6F9C5"/>
<stop offset="0.859375" stop-color="#F6FAC4"/>
<stop offset="0.875" stop-color="#F7FAC4"/>
<stop offset="0.890625" stop-color="#F8FAC3"/>
<stop offset="0.90625" stop-color="#F9FAC2"/>
<stop offset="0.921875" stop-color="#FAFAC2"/>
<stop offset="0.9375" stop-color="#FBFAC1"/>
<stop offset="0.953125" stop-color="#FCFAC0"/>
<stop offset="0.96875" stop-color="#FDFBC0"/>
<stop offset="0.984375" stop-color="#FEFBBF"/>
<stop offset="1" stop-color="#FFFBBE"/>
</linearGradient>
<clipPath id="clip0_300_4324">
<rect width="67" height="67" fill="white"/>
</clipPath>
</defs>
</svg>
